<svg xmlns="http://www.w3.org/2000/svg" enable-background="new 0 0 129.955 237.183" viewBox="0 0 129.955 237.183" id="worker">
  <path d="M120.91 146.412c.158.01.316.014.473.014 4.205.001 7.733-3.283 7.98-7.534.402-6.934.592-13.299.592-19.156-.041-30.184-4.861-46.888-11.436-56.932-3.285-4.986-7.127-8.184-10.678-9.956-3.442-1.734-6.466-2.116-8.264-2.134-.104-.004-.207-.016-.313-.016h-4.072l-2.495 19.504-9.75-11.75 6.997-7.754H69.951l6.997 7.754-9.75 11.75-2.495-19.504h-4.072c-.115 0-.226.013-.34.017-1.801.018-4.812.404-8.24 2.133-5.379 2.667-11.178 8.501-15.236 18.84-4.104 10.38-6.863 25.385-6.877 48.046 0 2.582.044 5.281.119 8.067.023.859.053 1.732.084 2.611l-18.369 10.686-1.156-1.987-1.106-1.902L0 142.739l1.107 1.903 1.156 1.987-2.161 1.257 26.146 44.947 34.575-20.112-16.66-28.64c.595-.594 1.094-1.278 1.479-2.03.625-1.225.949-2.622.863-4.094-.391-6.652-.567-12.711-.567-18.224-.034-24.219 3.495-37.822 6.964-44.922v79.719l9.908 17.033 1.158 1.987-1.989 1.156-9.077 5.281v44.83c0 6.83 5.537 12.363 12.363 12.363 6.828 0 12.365-5.533 12.365-12.363v-90.271h4.635v90.271c0 6.83 5.537 12.363 12.363 12.363 6.828 0 12.365-5.533 12.365-12.363V74.857c.593 1.217 1.191 2.611 1.781 4.239 2.818 7.813 5.189 20.63 5.18 40.639 0 5.515-.176 11.571-.565 18.224C113.133 142.369 116.499 146.155 120.91 146.412zM36.394 157.239l-11.062-19.017 5.015-2.917c.059 1.186.114 2.366.187 3.587.25 4.252 3.773 7.533 7.978 7.533.157 0 .316-.005.476-.015.48-.028.944-.105 1.396-.213l3.79 6.517L36.394 157.239zM118.471 13.65c0-3.959-9.627-7.168-21.501-7.168-.406 0-.803.013-1.204.02C91.702 2.483 86.116 0 79.948 0c-12.426 0-22.5 10.074-22.5 22.5 0 12.428 10.074 22.5 22.5 22.5 11.399 0 20.81-8.476 22.29-19.469-2.029-.104-4.169-.322-6.37-.664-11.521-1.791-20.4-6.304-20.146-10.17 1.524 3.46 10.442 6.119 21.247 6.119 8.153 0 15.247-1.514 18.892-3.743C117.524 16.057 118.471 14.891 118.471 13.65z"></path>
</svg>
