<svg version="1.1" id="Layer_1" xmlns="http://www.w3.org/2000/svg" xmlns:xlink="http://www.w3.org/1999/xlink" x="0" y="0" viewBox="0 0 500 500" style="enable-background:new 0 0 500 500" xml:space="preserve"><style>.st0{fill:#ff0008}.st1{fill:#d10f15}.st2{fill:#231f20}.st4{fill:#fdf8ff}.st5{fill:#fbc495}.st6{fill:#ff9203}.st7{fill:#2020ea}.st8{fill:#1f1927}.st13{fill:#fff}</style><path class="st0" d="M306.17 374.22c-9.18 19.17-12.46 3.33-33.51-3.55-14.83-4.87-17.77 4.43-24.14 7.88l-25.04-275.16c12.95-1.15 31.43-1.13 45.24 5.46 23.55 11.24 44.75 169.34 62.08 233.5s-15.47 12.7-24.63 31.87z"/><path class="st1" d="M248.53 378.55c-2.67 1.44-5.92 1.88-10.89-.17-9.2-3.77-18.87 12.39-24.77 4.28-7.05-9.69-8.84-11.87-22.2.49-11.11 10.31-23.99-15.49-37.67 2.94-6.41 8.67-13.44 2.59-12.17-17.01 11.8-184.2 67.09-263.53 67.09-263.53s6.41-1.37 15.57-2.15l25.04 275.15z"/><path class="st2" d="M159.72 234.37c-2.22 10.64-4.27 21.32-6.27 32-1.96 10.69-3.79 21.41-5.4 32.16-1.67 10.74-3.21 21.5-4.39 32.3-1.13 10.81-2.07 21.64-2.45 32.51.08-10.88.84-21.74 1.93-32.56 1.1-10.82 2.55-21.61 4.14-32.37 1.7-10.74 3.62-21.45 5.66-32.13 2.04-10.69 4.27-21.34 6.78-31.91zM145.32 389.34c2.05.89 4.23-.22 5.71-1.6 1.63-1.38 2.65-3.2 4.09-4.92 1.5-1.61 3.43-2.89 5.58-3.44 2.14-.54 4.41-.49 6.46.21-2.12-.38-4.29-.26-6.29.37s-3.79 1.82-5.17 3.38c-1.37 1.52-2.5 3.53-4.28 4.85-.85.69-1.83 1.27-2.91 1.55-1.08.25-2.29.22-3.19-.4zM183.49 385.61c.63.3 1.33.21 1.96.03.64-.17 1.27-.42 1.86-.74 1.19-.61 2.34-1.35 3.41-2.18 2.22-1.57 4.24-3.41 6.43-5.1-.88 1.07-1.8 2.09-2.81 3.05-.99.97-2.06 1.85-3.17 2.69-1.14.79-2.31 1.57-3.62 2.09-1.24.47-2.85 1.01-4.06.16zM237.64 378.38c3.07 1.53 6.64 1.53 9.71.3 1.59-.52 2.98-1.48 4.37-2.41.67-.51 1.32-1.05 1.98-1.58.63-.57 1.24-1.16 1.89-1.72-.52.68-1.08 1.33-1.63 1.99-.61.6-1.23 1.2-1.88 1.78-1.36 1.06-2.81 2.06-4.47 2.67-1.65.58-3.41.92-5.17.75-1.72-.16-3.44-.72-4.8-1.78zM290.38 379.9c2.28 1.69 4.99 3.23 7.79 3.01 1.36-.15 2.64-.81 3.51-1.89.85-1.06 1.52-2.36 2.21-3.64 1.46-2.46 2.67-5.25 5.1-7.12 1.22-.92 2.81-1.28 4.28-1.1 1.48.2 2.84.73 4.15 1.35-1.38-.45-2.76-.9-4.18-.96-1.42-.09-2.82.3-3.89 1.2-2.14 1.79-3.37 4.51-4.77 7.02-.71 1.26-1.38 2.55-2.36 3.73-.97 1.16-2.47 1.96-4 2.01-3.11.09-5.74-1.68-7.84-3.61zM335.73 370.07c-.5-3.46-1.1-6.89-1.71-10.33-.63-3.43-1.25-6.86-1.98-10.27-1.36-6.84-2.99-13.62-4.59-20.42 1.08 3.32 2.1 6.67 2.97 10.05.9 3.38 1.65 6.79 2.39 10.21 1.33 6.86 2.5 13.78 2.92 20.76zM288.89 150.89c2.82 11.95 5.59 23.92 8.27 35.91l8.15 35.94c2.61 12 5.32 23.99 7.83 36.01 2.47 12.02 5.45 23.98 6.89 36.19-.8-6.09-2.11-12.1-3.44-18.09l-3.96-17.99c-2.6-12.01-5.4-23.97-8.09-35.95l-7.89-35.99c-2.65-12-5.23-24.01-7.76-36.03zM163.62 376.29c-1.22-11.14-1.82-22.35-2.01-33.56-.2-11.21.01-22.43.63-33.63.75-11.19 2.06-22.34 3.87-33.41 1.91-11.06 4.6-21.97 8.19-32.59-1.52 5.4-3.26 10.72-4.36 16.22-1.39 5.42-2.29 10.96-3.32 16.46-1.71 11.06-2.93 22.2-3.6 33.38-.71 11.17-1.01 22.37-.89 33.57.06 5.6.21 11.2.47 16.79.21 5.59.54 11.18 1.02 16.77zM202.66 371.73c-1.99-7.8-3.47-15.73-4.63-23.7-1.17-7.97-2.01-15.99-2.55-24.03-.5-8.05-.53-16.12-.26-24.17.2-8.06 1.15-16.08 2.39-24.03-.4 4.01-1.03 7.98-1.21 12.01l-.44 6.01-.22 6.03c-.19 8.04-.06 16.08.52 24.1.45 8.02 1.21 16.04 2.29 24.01.56 3.98 1.16 7.96 1.86 11.92.65 3.96 1.38 7.92 2.25 11.85zM233.71 371.73c.39-8 .5-16.01.55-24.02 0-8.01-.14-16.01-.5-24.01-.27-8-.65-16-1.27-23.98-.59-7.99-1.37-15.95-2.16-23.93.51 3.97 1.08 7.94 1.53 11.92.41 3.99.84 7.97 1.15 11.97.71 7.98 1.18 15.99 1.53 23.99.27 8.01.32 16.03.24 24.04-.07 8.02-.37 16.03-1.07 24.02zM265.4 365.16c-.28-13.98-.73-27.96-1.27-41.93-.57-13.97-1.34-27.93-2.37-41.87-.97-13.94-2.18-27.87-3.99-41.73-.93-6.92-2.01-13.83-3.41-20.68-1.4-6.83-3.03-13.67-5.82-20.09 2.92 6.37 4.68 13.19 6.2 20.01 1.46 6.85 2.57 13.76 3.55 20.68 1.9 13.86 3.21 27.8 4.26 41.75.95 13.96 1.62 27.93 2.11 41.91.49 13.98.76 27.97.74 41.95zM310.52 363.33l-10.48-57.2c-3.54-19.06-7.11-38.11-10.84-57.13-3.64-19.04-7.34-38.07-11.35-57.03-.97-4.75-2-9.48-3.06-14.21-1.04-4.73-2.07-9.47-3.22-14.17-1.1-4.72-2.17-9.44-3.46-14.12-.64-2.33-1.17-4.7-1.91-7.01l-2.23-6.92c6.3 18.35 10.19 37.41 14.39 56.32 4.1 18.95 7.89 37.96 11.6 56.99 3.64 19.04 7.13 38.11 10.58 57.19 3.48 19.07 6.8 38.17 9.98 57.29z"/><ellipse cx="250.44" cy="440.91" rx="200.62" ry="29.09" style="fill:#00ca98"/><path class="st4" d="M196.11 194.96c9.92.18 27.58-4.35 37.5-4.01 16.75.58 42.19 2.31 46.96-10.97 1.5-26.22-.95-56.47-.95-56.47s-9.4-30.57-50.43-22.91c-26.26 4.9-30.65 20.04-31.77 40.15-.61 10.97-1.15 34.09-1.15 44.55l-.16 9.66z"/><path class="st5" d="M234.98 79.38s.02.1.06.28c.36 1.68 1.36 11.24-.84 14.45 0 0 6.83 7.59 6.61 10.58 0 0 3.57-9.64 6.12-11.25 0 0-3.79-2.9-1.57-16.23l-9.94-.33-.44 2.5z"/><path class="st6" d="M235.34 94.16c1.68.84 2.73 2.09 3.63 3.43.84 1.38 1.52 2.86 1.56 4.74-1.68-.84-2.73-2.09-3.63-3.43-.83-1.38-1.51-2.86-1.56-4.74z"/><path class="st6" d="M245.18 94.45c-.08 1.88-.79 3.34-1.64 4.72-.92 1.33-1.98 2.56-3.68 3.37.08-1.88.78-3.35 1.64-4.72.92-1.32 1.99-2.55 3.68-3.37z"/><path class="st4" d="M234.18 92.78s8.88 9.82 7.09 16.18c0 0-7.03-.73-10.74 6.5 0 0 2.62-14.86.58-17.24-2.05-2.39 2.94-7.43 3.07-5.44z"/><path class="st4" d="M246.38 92.78s-8.88 9.82-7.09 16.18c0 0 7.03-.73 10.74 6.5 0 0-2.62-14.86-.58-17.24 2.04-2.39-2.94-7.43-3.07-5.44z"/><path class="st2" d="M249.39 109.59c-.56-1.59-.9-3.25-1.05-4.94-.1-1.67-.03-3.48.84-4.96-.48 1.62-.48 3.27-.34 4.92.11 1.66.42 3.3.55 4.98zM239.41 108.84c2.19.42 4.35 1.03 6.38 2.03.99.53 1.98 1.14 2.78 1.95.82.79 1.45 1.78 1.82 2.83-1.18-1.91-2.94-3.25-4.9-4.19-1.93-.99-4.06-1.64-6.08-2.62zM245.31 93.94c-1.02 1.95-2.21 3.78-3.29 5.68-.57.93-1.08 1.89-1.59 2.85-.49.97-.98 1.94-1.3 2.99.27-2.21 1.37-4.21 2.42-6.12 1.13-1.89 2.35-3.71 3.76-5.4zM250.4 97.62c-.17-1.34-.33-2.64-.94-3.73-.29-.54-.73-1-1.28-1.19-.55-.18-1.22-.03-1.78.37.4-.52 1.11-.94 1.88-.8.78.11 1.32.74 1.69 1.32.73 1.25.82 2.73.43 4.03zM231.56 109.44c.12-1.69.43-3.32.54-4.98.14-1.65.14-3.3-.32-4.92.88 1.48.95 3.29.86 4.96-.17 1.69-.51 3.35-1.08 4.94z"/><path class="st2" d="M240.22 108.84c-1.83.9-3.76 1.52-5.47 2.53-1.74.96-3.13 2.4-4.2 4.13.34-.96.84-1.88 1.51-2.67.66-.81 1.5-1.44 2.38-1.99 1.82-1.02 3.79-1.61 5.78-2zM235.05 93.81c1.17 1.24 2.27 2.5 3.28 3.88.95 1.39 1.84 2.99 1.89 4.73-.58-1.6-1.44-2.99-2.43-4.34-.93-1.38-2.03-2.7-2.74-4.27z"/><path class="st4" d="m280.94 396.59-19.63-1.45.25 16.57 3.96 14.76 10.28-.3 2.79-5.4c1-2.69 1.91-5.51 2.96-8.51l-.61-15.67zM229.73 394.9l-19.63-1.45.25 16.57 3.96 14.76 10.28-.3 2.79-5.4c1-2.69 1.91-5.51 2.96-8.51l-.61-15.67z"/><path class="st2" d="M230.56 97.47a5.76 5.76 0 0 1-.14-2.03c.09-.67.21-1.38.6-1.98.37-.58.92-1.14 1.65-1.26.73-.15 1.43.21 1.88.71-.54-.4-1.22-.59-1.82-.45-.62.14-1.07.66-1.37 1.2-.29.56-.54 1.17-.65 1.82-.11.65-.13 1.31-.15 1.99z"/><path class="st7" d="M218.11 152.33s-4.92 33.12-21.99 42.63v55.63s-1.51 90.71 6.56 145.77c.16 1.08 1.15 1.83 2.24 1.83h24.54c1.62 0 2.95-1.27 3.03-2.88l7.58-146.58 15.5 146.41a3.412 3.412 0 0 0 3.39 3.05h23.28c1.79 0 3.22-1.46 3.19-3.25l-2.84-168.04-2.01-46.92s-10.56 19.52-15.67-34.8l-33.69.58-13.11 6.57z"/><path class="st6" d="M244.56 84.41c.43 1.39.53 2.75.75 4.08.06.67.16 1.33.25 1.98.1.66.19 1.29.52 1.94-.71-.3-1.12-1.03-1.41-1.69-.27-.68-.41-1.39-.52-2.1-.1-1.4-.1-2.83.41-4.21z"/><path class="st5" d="M319.09 149.88s-14.84 32.18-30.72 49.52c-11.66 12.74-15.2 18.95-15.8 23.56-.33 2.53 1.49 4.6 3.9 4.59l15.22-.06c1.55-.01 2.96-1.18 3.39-2.78.54-2.06.9-5-.2-7.88-2.01-5.23 17.14-14.47 33.53-26.54 21.25-15.64 6.25-30.3 6.25-30.3l-15.57-10.11z"/><path class="st6" d="M310.52 166.63c-2.23 4.89-4.91 9.55-7.7 14.14-1.45 2.26-2.9 4.52-4.49 6.69-1.59 2.16-3.23 4.31-5.14 6.21 1.57-2.18 3.03-4.41 4.48-6.66 1.44-2.25 2.89-4.5 4.26-6.79 2.89-4.52 5.61-9.13 8.59-13.59zM272.67 224.58c.2.93.88 1.5 1.69 1.79.78.35 1.66.49 2.52.62 1.75.2 3.53.28 5.32.3 1.79.06 3.58-.03 5.39-.05 1.81 0 3.61-.11 5.44-.04-1.78.4-3.56.75-5.38.94-1.8.26-3.63.3-5.46.35-1.83.01-3.68-.13-5.49-.54-.9-.26-1.81-.52-2.63-1.03-.81-.48-1.53-1.4-1.4-2.34zM297.94 211.24c3.85-3.21 7.84-6.24 11.95-9.11 4.06-2.93 8.25-5.71 12.84-7.82-1.97 1.57-3.97 3.06-6 4.53-2.02 1.46-4.11 2.84-6.19 4.23-4.13 2.82-8.32 5.56-12.6 8.17z"/><path class="st5" d="M224.29 63.69c.48-23.04 6.61-20.39 14.92-20.21s15.63-1.33 15.17 20.84c-.21 10.26-7.12 18.43-15.43 18.26-8.31-.18-14.87-8.64-14.66-18.89z"/><path class="st8" d="M223.72 50.04s-1.11 8.33.57 9.91c0 0 3.19.58 3.18-1.36-.01-1.94-.26-6.31 1.41-6.88 1.66-.57-5.16-1.67-5.16-1.67zM255.87 50.96s.76 8.37-.98 9.88c0 0-3.21.45-3.12-1.49.1-1.94.52-6.29-1.13-6.94s5.23-1.45 5.23-1.45z"/><ellipse transform="rotate(-88.808 238.384 48.944)" class="st6" cx="238.38" cy="48.95" rx="4.45" ry="19.25"/><path d="M222.28 47.81c.46-1.22 1.17-4.12 1.63-10.81 0 0 .88-7.05 14.72-6.76 13.84.29 14.88 6.94 14.88 6.94s-.23 7.98 1 11.1c.15.38-.08.8-.49.86-3.38.54-16.26 2.24-31.16-.28a.787.787 0 0 1-.58-1.05z" style="fill:#febb3e"/><defs><path id="SVGID_1_" d="M222.57 48.69s1.35-1.08 2.08-11.67c0 0 .88-7.05 14.72-6.76 13.84.29 14.88 6.94 14.88 6.94s-.27 9.49 1.37 11.81c.01 0-15.23 2.92-33.05-.32z"/></defs><clipPath id="SVGID_00000023995745117978905050000005021494097994103175_"><use xlink:href="#SVGID_1_" style="overflow:visible"/></clipPath><path style="clip-path:url(#SVGID_00000023995745117978905050000005021494097994103175_);fill:#ffe2b3" d="m237.4 29.55-.02 22.24 3.75.07.02-22.12z"/><circle class="st6" cx="239.23" cy="42.23" r="4.94"/><circle cx="239.23" cy="42.23" r="4.4" style="fill:#ffe2b3"/><circle class="st4" cx="239.23" cy="42.23" r="3.85"/><path class="st5" d="M254.5 58.48s-1.64-3.9 1.56-4.11 3.35 5.98 2.42 8.22-2.42 5.03-5.19 2.54c0 0-.31-.89.03-1.44M224.56 58.53s1.8-3.83-1.39-4.17-3.59 5.84-2.76 8.12c.84 2.28 2.21 5.13 5.08 2.76 0 0 .35-.88.03-1.44"/><path class="st6" d="M232.92 80.87c2.14 1.04 4.51 1.44 6.78 1.25 2.27-.23 4.45-1.06 6.26-2.38 1.82-1.33 3.23-3.18 4.59-5.09 1.37-1.89 2.57-3.9 3.36-6.15-.18 2.41-1.23 4.68-2.42 6.77-1.25 2.03-2.69 4.1-4.77 5.53-2.02 1.45-4.51 2.28-6.98 2.27-2.47 0-4.92-.75-6.82-2.2zM255.75 59.19c-.95-.04-1.8-.8-2.06-1.81-.06-.51-.05-1.03.16-1.47.19-.44.49-.81.87-1.08-.13.92-.31 1.67-.11 2.34.1.7.59 1.28 1.14 2.02zM253.18 62.86l.27 1.17c.12.35.16.7.35.96.16.26.31.48.59.63.25.21.62.3 1.03.5-.38.23-.83.34-1.32.22-.46-.13-.93-.48-1.13-.93-.39-.91-.27-1.83.21-2.55zM222.63 58.96c.45-.18.79-.32 1.02-.52.22-.19.35-.36.49-.6.15-.23.24-.55.4-.9.13-.35.24-.74.46-1.16.28.38.43.8.49 1.25.07.45.01.94-.23 1.41-.23.47-.73.89-1.27.96-.53.07-1.03-.07-1.36-.44zM225.57 62.7c.31.38.43.83.47 1.31.01.47-.1.99-.4 1.43-.33.41-.8.78-1.31.82-.5.09-.97-.01-1.38-.23.86-.38 1.52-.64 1.8-1.19.39-.5.5-1.25.82-2.14z"/><path class="st4" d="m250.83 110.06 2.97-4.24s26.66-9.85 68.22 25.58c0 0 26 26.73 22.33 32.38-3.66 5.64-21.26 8.55-26.13 9.27-4.88.72-6.59-.03-10.08 2-2.74 1.59-7.15.64-8.67-2.46-.16-.94-.33-1.87-.53-2.81.01-.08 0-.15.01-.24l-.14-2.89-.41.75c-5.97-24.52-21.89-49.6-47.57-57.34z"/><path class="st2" d="M338.99 150.86c1.6 2.11 3.14 4.26 4.45 6.58.65 1.16 1.24 2.36 1.61 3.67.16.66.28 1.34.2 2.05-.05.35-.18.71-.37 1.02l-.65.8c-1.89 2-4.41 3.08-6.85 4.09-2.48.97-5.03 1.72-7.6 2.37-5.15 1.26-10.37 2.29-15.68 2.53-1.31.07-2.6.23-3.81.7-1.19.42-2.3 1.33-3.7 1.48-2.66.4-5.62-.87-6.76-3.31 1.27 2.4 4.21 3.38 6.7 2.95 1.29-.14 2.31-1.03 3.59-1.53 1.25-.52 2.62-.71 3.94-.8 2.64-.14 5.22-.55 7.82-1.04 2.59-.5 5.18-.97 7.74-1.6 2.56-.62 5.1-1.34 7.55-2.27 2.41-.96 4.92-2.03 6.7-3.89.41-.5.88-.94.92-1.56.08-.61-.02-1.25-.17-1.87-.34-1.25-.9-2.44-1.5-3.61-1.22-2.33-2.69-4.53-4.22-6.69l.09-.07zM259.54 104.75c5.76-1.23 11.74-.34 17.4 1.03 5.69 1.42 11.16 3.62 16.44 6.17 5.28 2.56 10.22 5.74 15.1 8.97 2.4 1.68 4.75 3.43 7.11 5.15l6.78 5.57-6.98-5.31c-2.39-1.68-4.75-3.4-7.16-5.04-4.9-3.16-9.87-6.25-15.14-8.74-5.21-2.6-10.61-4.86-16.25-6.34-2.82-.7-5.68-1.34-8.58-1.6-2.89-.29-5.85-.43-8.72.14zM298.75 167.63c-1.39-5.13-2.9-10.23-4.62-15.25-1.75-5.01-3.79-9.93-6.31-14.58-2.46-4.68-5.45-9.12-9.18-12.87-3.73-3.73-8.22-6.76-13.23-8.57 5.1 1.57 9.74 4.5 13.53 8.27 3.82 3.74 6.9 8.19 9.44 12.88 2.49 4.73 4.46 9.7 6.16 14.75 1.7 5.03 3.06 10.18 4.21 15.37z"/><path class="st4" d="M231.02 100.28s-25.5.93-35.63 6.1c-10.14 5.17 18.3 4.42 18.3 4.42l15.86-6.91 1.47-3.61z"/><path class="st7" d="M219.28 110.66c.27 3.42.31 6.84.14 10.27-.17 3.54-.35 8.74-.32 14.61.03 5.67-1.04 13.13-1.89 18.89 1.26.1 3.42-1.93 4.68-1.91 13.63.2 27.11-3.28 40.22-6.64.93-.24 1.87-.47 2.8-.7-1.79-16.53-2.89-37.82-2.99-39.4-.16-2.35.16-5.65-2.04-5.49-2.2.16-1.54 2.35-1.54 2.35.44 9.67.12 29.03 0 32.64s-.98 3.45-17.31 3.45-15.04-1.1-15.99-3.77c-.94-2.67-1.75-33.34-1.75-33.34-.45-1.02-1.85-.94-1.85-.94-3.24.16-2.72 2.82-2.72 2.82l.56 7.16z"/><path class="st8" d="M229.52 404.58s-.41 3.88-1.32 8.01c-.53 2.4-3.71 2.73-4.8.53-1.04-2.09-2.78-3.94-5.68-4.26 0 0-7.57-2.9-12.08 5.96 0 0-15.14 19.81-12.24 32.69 0 0 5.15 8.86 15.14 2.58 0 0 20.42-16.24 23.65-29.93-.02.12 1.21-15.14-.06-16.65-.96-1.12-2.21-.38-2.61 1.07zM261.49 404.58s.41 3.88 1.32 8.01c.53 2.4 3.71 2.73 4.8.53 1.04-2.09 2.78-3.94 5.68-4.26 0 0 7.57-2.9 12.08 5.96 0 0 15.14 19.81 12.24 32.69 0 0-5.15 8.86-15.14 2.58 0 0-20.42-16.24-23.65-29.93.02.12-1.21-15.14.06-16.65.95-1.12 2.21-.38 2.61 1.07z"/><path class="st5" d="M161.37 154.43s14.84 32.18 30.72 49.52c11.66 12.74 15.2 18.95 15.8 23.56.33 2.53-1.49 4.6-3.9 4.59l-15.22-.06c-1.55-.01-2.96-1.18-3.39-2.78-.54-2.06-.9-5 .2-7.88 2.01-5.23-17.14-14.47-33.53-26.54-21.25-15.64-6.25-30.3-6.25-30.3l15.57-10.11z"/><path class="st6" d="M169.94 171.17c2.99 4.47 5.71 9.07 8.59 13.58 1.37 2.29 2.82 4.54 4.26 6.79s2.9 4.48 4.48 6.66c-1.91-1.9-3.55-4.04-5.14-6.21-1.59-2.17-3.04-4.43-4.49-6.69-2.79-4.58-5.47-9.23-7.7-14.13zM207.8 229.13c.13.94-.59 1.86-1.4 2.33-.82.51-1.73.77-2.63 1.03-1.82.41-3.66.55-5.49.54-1.83-.05-3.65-.09-5.46-.35-1.81-.19-3.6-.54-5.38-.94 1.83-.07 3.63.04 5.44.04 1.8.02 3.6.11 5.39.05 1.79-.02 3.57-.09 5.32-.3.86-.13 1.75-.27 2.52-.62.81-.28 1.49-.85 1.69-1.78zM182.52 215.79c-4.28-2.61-8.47-5.35-12.6-8.17-2.08-1.39-4.16-2.77-6.19-4.23-2.03-1.46-4.03-2.95-6-4.53 4.59 2.11 8.78 4.89 12.83 7.82 4.12 2.87 8.11 5.9 11.96 9.11z"/><path class="st4" d="m217.64 114.73-3.18-10.8s-27.95-5.12-62.81 36.93c0 0-21.02 30.81-16.44 35.73 4.58 4.93 22.41 4.77 27.34 4.64 4.93-.13 6.48-1.16 10.27.24 2.97 1.1 7.15-.6 8.12-3.92-.01-.95 0-1.9.03-2.86-.02-.08-.02-.15-.05-.23l-.36-2.87.53.67c1.69-25.18 12.58-45.48 36.55-57.53z"/><path class="st2" d="M138.66 162.73c-1.13 2.39-2.21 4.81-3 7.31-.39 1.25-.73 2.53-.85 3.81-.04.64-.03 1.29.16 1.87.14.61.68.96 1.17 1.38 2.08 1.53 4.73 2.15 7.27 2.68 2.58.49 5.2.77 7.83.94 2.63.18 5.27.2 7.9.25 2.65.03 5.26-.01 7.89-.32 1.31-.14 2.69-.18 4.02.11 1.35.26 2.51.97 3.8.89 2.53-.01 5.26-1.48 6.1-4.06-.7 2.6-3.4 4.37-6.09 4.43-1.4.1-2.65-.61-3.9-.82-1.27-.26-2.57-.19-3.88-.03-5.27.68-10.6.56-15.89.2-2.64-.2-5.29-.5-7.89-1.03-2.58-.57-5.25-1.2-7.45-2.85l-.78-.67c-.25-.27-.43-.6-.54-.94-.21-.68-.2-1.38-.16-2.05.14-1.35.51-2.64.95-3.89.89-2.51 2.05-4.89 3.26-7.24l.08.03zM208.9 103.6c-3.17.11-6.27.97-9.29 1.87-3.02.94-5.99 2.05-8.87 3.37-5.75 2.64-11.25 5.86-16.31 9.67-1.31.89-2.49 1.95-3.74 2.92-1.25.98-2.48 1.97-3.62 3.07l-3.51 3.2-3.3 3.42c-2.27 2.22-4.17 4.76-6.26 7.15-2 2.45-3.82 5.06-5.74 7.58 1.87-2.56 3.64-5.2 5.6-7.69 2.07-2.41 3.96-4.97 6.22-7.21l3.28-3.45 3.5-3.24c1.14-1.11 2.37-2.12 3.61-3.11 1.25-.98 2.43-2.05 3.74-2.95 5.1-3.8 10.64-6.99 16.42-9.6 5.8-2.51 11.92-4.67 18.27-5zM181.09 172.29c.4-8.92 1.71-17.97 5.35-26.25 1.88-4.1 4.35-7.9 7.15-11.41 2.78-3.53 5.9-6.76 9.07-9.92-2.99 3.33-6 6.65-8.74 10.18-2.73 3.53-5.11 7.33-6.9 11.41-1.86 4.04-3.16 8.34-4.04 12.71-.87 4.39-1.43 8.83-1.89 13.28z"/><path class="st1" d="M206.85 103.74s4.7 12.36 10.06 8.51 4.54-11.57 4.54-11.57-11.47.69-14.6 3.06z"/><path class="st0" d="M258.34 102.64s3.11 8.34 7.06 8.2c3.95-.14 7.14-6.19 7.14-6.19s-17.97-8.47-14.2-2.01z"/><path class="st2" d="M211.9 111.73c.87.6 1.87.96 2.83.91.95-.05 1.85-.49 2.54-1.2 1.5-1.32 2.43-3.22 3.57-5.01-.49 2.06-1.39 4.08-3 5.64-.82.73-1.95 1.32-3.12 1.21-1.16-.08-2.19-.7-2.82-1.55zM259.03 104.25a6.1 6.1 0 0 1-1.34-1.64c-.31-.62-.72-1.34-.34-2.31.23-.49.77-.64 1.15-.69.4-.04.78-.02 1.13.08.71.17 1.35.47 1.95.84-.71-.03-1.38-.16-2.04-.18-.62-.02-1.34.02-1.44.37-.24.32-.02 1.04.18 1.64.22.61.5 1.23.75 1.89z"/><path class="st13" d="m229.86 398.19.2 5.34"/><path class="st2" d="M229.86 398.19c.32 1.77.39 3.55.21 5.34-.33-1.77-.4-3.56-.21-5.34z"/><path class="st13" d="m209.99 398.02.35 12.01"/><path class="st2" d="M209.99 398.02c.37 3.99.49 8 .35 12.01-.37-4-.49-8-.35-12.01zM261.39 398.19c.25 1.96.26 3.93 0 5.88a22.26 22.26 0 0 1 0-5.88z"/><path class="st13" d="m280.99 398.02.55 12.11"/><path class="st2" d="M280.99 398.02c.44 4.02.62 8.06.55 12.11-.44-4.03-.62-8.07-.55-12.11z"/><path class="st7" d="M196.11 176.21s7.82 13.68 14.04 1.08c3.99-8.09 8.88-29.02 8.95-42.29l11.29 42.63-34.27 22.65v-24.07z"/></svg>